#N canvas 827 239 527 327 12;
#X obj 128 164 netreceive -u -b;
#X obj 128 201 oscparse;
#X obj 128 233 list trim;
#X msg 128 132 listen 3334;
#X obj 269 129 bng 25 250 50 0 empty empty empty 17 7 0 10 #333333 #eeeeee #111111;
#X obj 88 381 print;
#X obj 128 278 route breath;
#X obj 213 405 vsl 26 128 0 1 0 0 empty empty empty 0 -9 0 10 #333333 #eeeeee #111111 0 1;
#X obj 159 359 unpack 1 1 1;
#X connect 0 0 1 0;
#X connect 1 0 2 0;
#X connect 2 0 6 0;
#X connect 3 0 0 0;
#X connect 4 0 3 0;
#X connect 6 0 5 0;
#X connect 6 0 8 0;
#X connect 8 1 7 0;
